<?xml version="1.0" encoding="utf-8"?>
<!-- Generator: Adobe Illustrator 22.1.0, SVG Export Plug-In . SVG Version: 6.00 Build 0)  -->
<svg version="1.1" id="Layer_1" xmlns="http://www.w3.org/2000/svg" xmlns:xlink="http://www.w3.org/1999/xlink" x="0px" y="0px"
	 viewBox="0 0 841.9 595.3" style="enable-background:new 0 0 841.9 595.3;" xml:space="preserve">
<style type="text/css">
	.st0{fill:none;stroke:#231F20;stroke-miterlimit:10;}
	.st1{fill:none;stroke:#231F20;stroke-width:0.25;stroke-miterlimit:10;}
	.st2{fill:none;stroke:#231F20;stroke-width:0.5;stroke-miterlimit:10;}
	.st3{fill:#231F20;}
	.st4{fill:#E42329;stroke:#231F20;stroke-miterlimit:10;}
	.st5{fill:none;stroke:#000000;stroke-miterlimit:10;}
	.st6{fill:#FFFFFF;stroke:#231F20;stroke-width:0.5;stroke-miterlimit:10;}
	.st7{fill:#FFFFFF;}
	.st8{fill:none;stroke:#221E1F;stroke-miterlimit:10;}
</style>
<g>
	<path class="st0" d="M599.5,143.2c0,0,2.8-32-19.3-52s-37.5-19.5-48.3-20.4c0,0-28.5-0.5-48.2,20.4c0,0-20.5,18.4-19.5,51.7
		L599.5,143.2z"/>
	<path class="st1" d="M568.1,140.1l28.1,0.6c0,0,1.3-26.7-17.7-45.9s-42-20.1-46.5-20c-4.5,0.1-23.3,0.2-40.8,14.5
		s-23.1,32.8-23.6,49.5h28.3c0.4-0.9-0.9-11.6,8.6-23c5.1-6.1,14.1-12.4,27.3-12.8c5.3-0.1,17.6,1.9,26.9,12.1
		C564.2,120.8,568.1,128.8,568.1,140.1z"/>
	<path class="st2" d="M563.1,140.1c0,0,0.8-30.3-31.2-32.1c0,0-28.9-0.5-31,32.1l9.7,0.1c0,0,2.5-0.2,3-2.7c0,0,2.1-16.8,18.5-16.8
		c16.4,0,18.3,15.8,18.3,15.8s0.2,3,2.5,3.4c0.1,0,0.3,0,0.5,0C556,139.9,563.1,140.1,563.1,140.1z"/>
	<g>
		<g>
			<path d="M77.3,104.2v1.3h23v-1.3H77.3z M100,105.2H77.7v-0.6H100V105.2z"/>
			<path d="M77.3,111.1h23v-1.3h-23V111.1z M77.7,110.1H100v0.6H77.7V110.1z"/>
			<path d="M77.3,116.8h23v-1.3h-23V116.8z M77.7,115.8H100v0.6H77.7V115.8z"/>
			<path d="M77.3,122.6h23v-1.3h-23V122.6z M77.7,121.6H100v0.6H77.7V121.6z"/>
			<path d="M77.3,128.1h23v-1.3h-23V128.1z M77.7,127.1H100v0.6H77.7V127.1z"/>
			<path d="M77.3,133.8h23v-1.3h-23V133.8z M77.7,132.8H100v0.6H77.7V132.8z"/>
			<path d="M77.3,138.7h23v-1.3h-23V138.7z M77.7,137.7H100v0.6H77.7V137.7z"/>
		</g>
		<g>
			<path d="M33.3,104.8v1.3h24.1v-1.3H33.3z M57,105.8H33.6v-0.6H57V105.8z"/>
			<path d="M33.3,111.7h24.1v-1.3H33.3V111.7z M33.6,110.7H57v0.6H33.6V110.7z"/>
			<path d="M33.3,117.3h24.1v-1.3H33.3V117.3z M33.6,116.3H57v0.6H33.6V116.3z"/>
			<path d="M33.3,123h24.1v-1.3H33.3V123z M33.6,122H57v0.6H33.6V122z"/>
			<path d="M33.3,128.4h24.1v-1.3H33.3V128.4z M33.6,127.5H57v0.6H33.6V127.5z"/>
			<path d="M33.3,134h24.1v-1.3H33.3V134z M33.6,133.1H57v0.6H33.6V133.1z"/>
			<path d="M33.3,138.9h24.1v-1.3H33.3V138.9z M33.6,137.9H57v0.6H33.6V137.9z"/>
		</g>
		<g>
			<path d="M59.2,170.1V146h-1.3v24.1H59.2z M58.3,169.8v-23.4h0.6v23.4H58.3z"/>
			<path d="M64.7,170.1V146h-1.3v24.1H64.7z M63.7,169.8v-23.4h0.6v23.4H63.7z"/>
			<path d="M70.3,170.1V146h-1.3v24.1H70.3z M69.3,169.8v-23.4h0.6v23.4H69.3z"/>
			<path d="M75.2,170.1V146h-1.3v24.1H75.2z M74.2,169.8v-23.4h0.6v23.4H74.2z"/>
		</g>
		<g>
			<path d="M58.7,101.4V77.4h-1.4v24.1H58.7z M57.7,101.1V77.7h0.6v23.4H57.7z"/>
			<path d="M64.4,101.4V77.4H63v24.1H64.4z M63.4,101.1V77.7H64v23.4H63.4z"/>
			<path d="M70.1,101.4V77.4h-1.4v24.1H70.1z M69.1,101.1V77.7h0.6v23.4H69.1z"/>
			<path d="M75.2,101.4V77.4h-1.4v24.1H75.2z M74.1,101.1V77.7h0.6v23.4H74.1z"/>
		</g>
	</g>
	<rect x="109.5" y="147" class="st3" width="91.5" height="0.8"/>
	<rect x="361.2" y="146.1" class="st3" width="32.5" height="0.3"/>
	<g>
		<path class="st4" d="M602.9,138.8l-0.7,0c0-0.2,0.6-15.5-7.1-31.7c-7.1-15-22.7-33.8-57.4-38.6c-1.8-0.1-5.6-0.2-5.6-0.2
			c0,0-4,0-5.8,0.1c-34.5,4.9-50.2,23.7-57.3,38.6c-7.7,16.2-7.3,31.4-7.3,31.5l-0.7,0c0-0.2-0.4-15.5,7.4-31.8
			c7.2-15.1,23.1-34.1,57.9-39c1.9-0.1,5.9-0.1,5.9-0.1c0,0,3.9,0.1,5.7,0.2c35,4.8,50.9,23.8,58,39
			C603.5,123.1,602.9,138.6,602.9,138.8z"/>
	</g>
	<polygon class="st4" points="636.6,79.3 636.6,79.4 636.6,79.4 636.6,80.1 636.6,80.1 636.6,94.4 606.4,94.4 606,94.4 605.7,94.4 
		605.7,138.9 606.4,138.9 606.4,95 636.6,95 637.5,95 637.5,94.4 637.5,80.1 660.5,80.1 660.5,86.2 661.5,86.2 661.5,80.1 
		684.5,80.1 684.5,86.1 685.6,86.1 685.6,80.1 710.5,80.1 710.5,89.9 704.5,89.9 704.5,90.8 710.5,90.8 710.5,114.1 704.5,114.1 
		704.5,115 710.5,115 710.5,138.1 711.2,138.1 711.2,79.4 711.2,79.3 	"/>
	<polygon class="st4" points="451,366.9 436,392 436.6,392.4 451.6,367.2 	"/>
	<rect x="476" y="359.2" class="st4" width="100.8" height="0.8"/>
	<polygon class="st4" points="710.5,148.1 710.5,166.9 704.3,166.8 704.4,167.7 710.5,167.8 710.5,186.5 704.6,185.3 704.4,186.2 
		710.3,187.4 703.9,203.2 698.3,200.9 698,201.7 703.6,204.1 697.1,220 691.5,217.7 691.2,218.6 696.8,220.8 690.4,236.7 
		684.7,234.4 684.3,235.3 690,237.6 683.6,253.5 678,251.2 677.6,252 683.2,254.4 676.8,270.2 671.1,267.9 670.8,268.8 676.5,271.1 
		672.8,280.1 673.5,280.5 711.1,187.1 711.1,148.1 	"/>
	<polygon class="st4" points="669.2,289.2 656.7,320.1 651.1,317.8 650.7,318.6 656.4,320.9 647.7,342.5 642,340.1 641.7,341 
		647.3,343.3 638.7,364.8 633,362.5 632.7,363.3 638.3,365.6 636.1,371 636.8,371.3 669.9,289.5 	"/>
	<polygon class="st3" points="252.7,170.1 234.5,170.1 234.5,170.3 234.3,170.3 234.3,283 235.2,283 235.2,171.7 252.7,171.7 	"/>
	<rect x="361.1" y="79.6" class="st3" width="32" height="0.4"/>
	<rect x="391.9" y="79.6" class="st3" width="0.4" height="15.4"/>
	<rect x="361.8" y="79.7" class="st3" width="0.4" height="15.4"/>
	<path class="st3" d="M362.2,95.2l0-0.4c4.3-0.5,10-2.3,13-8c1.8-3.5,1.7-6.8,1.7-6.8l0.4,0c0.7,7.5,4.6,11.1,7.8,12.8
		c3.5,1.9,6.8,1.9,6.8,1.9l0,0.4c-0.1,0-12.6-0.4-14.8-13.4C376.6,85.5,374.1,93.9,362.2,95.2z"/>
	<rect x="393" y="75.6" class="st5" width="4.2" height="8.3"/>
	<rect x="57.2" y="142.4" class="st5" width="19.3" height="3.9"/>
	<rect x="57.2" y="101.4" class="st5" width="19.3" height="3.6"/>
	<rect x="602.5" y="138.8" class="st5" width="9.2" height="8.9"/>
	<rect x="351.9" y="138.4" class="st5" width="9" height="9.2"/>
	<polygon class="st5" points="109.5,138.4 103.3,138.4 103.3,77.5 100.8,77.5 100.8,138.4 100.6,138.4 100.6,147.4 109.5,147.4 	"/>
	<polygon class="st5" points="228.6,147.8 228.6,145.9 210.1,145.9 210.1,138.6 201,138.6 201,147.8 210.1,147.8 	"/>
	<rect x="356.7" y="75.6" class="st5" width="4.2" height="8.3"/>
	<polygon class="st5" points="412.1,86.1 412.9,86.1 412.9,80.1 426.6,80.1 426.6,95.1 426.7,95.1 427.3,95.1 457.6,95.1 
		457.6,138.2 458.4,138.2 458.4,95.1 458.8,95.1 458.8,94.4 427.3,94.4 427.3,80.1 427.3,80.1 427.3,79.3 397.7,79.3 397.7,80.1 
		412.1,80.1 	"/>
	<polygon class="st5" points="703.3,138.6 703.3,143.2 634.9,143.2 634.9,146 703.3,146 703.3,147.4 712.1,147.4 712.1,138.6 	"/>
	<polygon class="st5" points="663.5,283.8 638.5,283.8 638.5,286.9 664.1,286.9 671.2,289.6 674.5,281.1 665.9,277.8 	"/>
	<rect x="452.2" y="279.1" class="st5" width="9.1" height="9"/>
	<path class="st5" d="M435.9,393.2l-2.5-1.5l-3.9,6.4l-68.6-40.8v-50.9h-3.3v44.4H352v5.8h-58.8v-70.1h58.5v1.7h9.2v-9.2h-9.2v4.6
		h-121v3h59.4v70.1h-79.9v-5.9h-8.9v6.1h-91.8V351h-6.4v-62.9h6.3v-1.7h91.8v1.5h9.1v-1.5h3.4v-2.8h-3.4l-0.1-10.4h-3.1v6h-5.9v4.4
		h-43.5v-40.1h49.7v13.6h3v-16.8h-10v-64.9h10.1v-5.4H185v5.4h12.3v64.9h-43.7v3.2h1.1v40.1h-45.2v-4.5h-6.3v-35.6h37.1v-3.1h-0.7
		v-18.9h-2.1v18.9h-34.2v-35.9h34.3v0.9h2.1v-0.9h0.8v-3.4h-37.3v-27.9h51.5v28.2h-0.9v2.7h4v-34l-102.6-0.3v0
		c-17.7-1-21.2-16.4-22-22.1V83.7h-1.1v-6.9h1.2v-3h-3.2c0,0-0.2,73.7-0.2,74.2l0,0.1h0c2.7,22.2,20.7,24.7,25.1,24.9v0h45.4
		l-0.1,186.8h258.8l79.8,47.4l1.7-2.6l-8.6-5.2L435.9,393.2z"/>
	<polygon class="st5" points="461.1,351 452.3,351 452.3,359.7 449.2,364.8 451.8,366.4 455.8,359.7 475.7,359.6 475.7,356.8 
		461.1,356.8 	"/>
	<polygon class="st5" points="623.6,370.5 632.3,374.1 619.5,405.7 584.1,391.4 597,360.1 597.5,360.1 606.5,363.8 608.2,360.1 
		600.8,356.8 600.7,288.2 611.9,288.2 611.9,279 608.8,279 608.8,264.1 611.7,264.1 611.7,261.9 606.8,261.9 606.8,261.9 
		606.8,264.1 606.8,279 602.7,279 602.7,285.9 598.6,285.9 598.6,350.9 591.6,350.9 591.6,356.8 577.1,356.8 577.1,360.1 
		591.6,360.1 592.5,360.1 579,393.6 621.7,411 637.6,371.9 625,366.8 	"/>
	<polygon class="st5" points="461.3,138.6 452.4,138.6 452.4,144.6 452.1,144.6 452.1,144.4 402,144.4 402,147.9 461.2,147.6 	"/>
	<g>
		<path d="M34.7,75.5h-1.4v-0.7h1.4V75.5z M33.4,75.3h1.1V75h-1.1V75.3z"/>
	</g>
	<path class="st3" d="M101.8,74.8L101.8,74.8l-49.1,0.1c0-2.8-0.6-8.2-4.1-12.5c-3.1-3.8-7.7-6-13.8-6.6v0h-0.5v18.1h-0.6v0.1h0.6
		v2.9h-0.6V77h0.6V77h0.2V77h22.9v-0.2h-4.7c0-0.2,0.1-0.7,0.1-1.5h49.1v2.2h0.6v-2.2v-0.4v-0.1H101.8z M52.3,76.8H34.5v-2.9h0v-0.1
		h0.3V56.1c6,0.6,10.5,2.8,13.6,6.5C53.1,68.4,52.4,76.2,52.3,76.8z"/>
	<path class="st3" d="M153.2,189c-12.4,0.8-12.4,12.9-12.4,13l0,0.2h12.6V189L153.2,189z M142.5,196c1.8-3.7,5-5.9,9.5-6.5v12.3h-11
		C141.1,201.2,141.3,198.6,142.5,196z M153,201.9h-0.7v-12.4c0.2,0,0.5-0.1,0.7-0.1V201.9z"/>
	<path class="st3" d="M122.4,205.7l0,0.2c0,0.1,0.5,14.7,15.2,15.3l0.2,0v-15.5H122.4z M137.4,206.1v0.6h-14.6c0-0.3,0-0.5-0.1-0.6
		H137.4z M122.8,206.9h14.6v13.9C125.4,220.3,123.2,210.2,122.8,206.9z"/>
	<path class="st3" d="M140.7,242.4l0,0.2c0,0.1-0.1,3,1.4,6.1c1.3,2.9,4.3,6.4,10.9,7l0.2,0v-13.3H140.7z M141.1,242.7h11v12.5
		C141.5,253.7,141.1,244.1,141.1,242.7z M152.8,255.3c-0.2,0-0.4,0-0.6-0.1v-12.5h0.6V255.3z"/>
	<path class="st3" d="M192,257.5l0,0.2c0,0.1-0.2,14,15.3,15.2l0.2,0v-15.4H192z M207.1,257.8v0.5h-14.8c0-0.2,0-0.4,0-0.5H207.1z
		 M192.4,258.6h14.7v13.9C194.6,271.4,192.7,261.7,192.4,258.6z"/>
	<path class="st3" d="M214.2,286.4v16.4l0.2,0c15.9-0.4,16.3-16.1,16.3-16.2l0-0.2H214.2z M214.5,286.8h0.6v15.7c-0.2,0-0.4,0-0.6,0
		V286.8z M215.4,302.4v-15.6h14.9C230.2,288.5,229,301.5,215.4,302.4z"/>
	<path class="st3" d="M341.6,288.8l0,0.2c0,0.2,0.4,15.6,16.3,16.3l0.2,0v-16.5H341.6z M357.8,289.1v0.7h-15.7
		c0-0.3-0.1-0.6-0.1-0.7H357.8z M342.1,290.1h15.7v14.9C344.9,304.2,342.5,293.6,342.1,290.1z"/>
	<path class="st0" d="M638.1,286.3H634v0h-18.5v0h-3.6v1.1h3.6v18.2l0.4,0c16.4-0.8,18.1-14.8,18.3-18.2h4V286.3z"/>
	<g>
		<g>
			<polygon class="st3" points="496.2,135.9 468.1,132.7 468.1,132.5 496.2,135.7 			"/>
		</g>
		<g>
			<polygon class="st3" points="496.1,135.1 468.2,131.9 468.3,131.7 496.2,134.9 			"/>
		</g>
		<g>
			
				<rect x="483" y="114.5" transform="matrix(0.2262 -0.9741 0.9741 0.2262 248.4629 570.0472)" class="st3" width="0.2" height="28.2"/>
		</g>
		<g>
			<polygon class="st3" points="496.9,131.1 469.4,124.8 469.5,124.6 496.9,130.9 			"/>
		</g>
		<g>
			<polygon class="st3" points="497.7,127.9 471.2,118.7 471.3,118.5 497.8,127.8 			"/>
		</g>
		<g>
			<polygon class="st3" points="497.9,127.2 471.5,117.9 471.5,117.7 498,127 			"/>
		</g>
		<g>
			<polygon class="st3" points="499.2,124.2 473.8,111.9 473.9,111.8 499.2,124.1 			"/>
		</g>
		<g>
			<polygon class="st3" points="499.6,123.5 474.2,111.2 474.2,111.1 499.6,123.3 			"/>
		</g>
		<g>
			<polygon class="st3" points="501,120.6 477.2,105.6 477.2,105.5 501.1,120.5 			"/>
		</g>
		<g>
			
				<rect x="489.5" y="98.3" transform="matrix(0.5304 -0.8477 0.8477 0.5304 134.6722 467.815)" class="st3" width="0.2" height="28"/>
		</g>
		<g>
			
				<rect x="492.2" y="94.4" transform="matrix(0.6249 -0.7807 0.7807 0.6249 100.0302 425.0461)" class="st3" width="0.2" height="28.1"/>
		</g>
		<g>
			
				<rect x="492.8" y="93.8" transform="matrix(0.6255 -0.7803 0.7803 0.6255 100.4953 424.9294)" class="st3" width="0.2" height="28"/>
		</g>
		<g>
			<polygon class="st3" points="505.9,114.1 486,94.3 486.1,94.1 506,114 			"/>
		</g>
		<g>
			
				<rect x="496.5" y="89.5" transform="matrix(0.7087 -0.7055 0.7055 0.7087 71.6058 380.5373)" class="st3" width="0.2" height="28"/>
		</g>
		<g>
			
				<rect x="500" y="86.2" transform="matrix(0.7827 -0.6224 0.6224 0.7827 46.2445 333.0696)" class="st3" width="0.2" height="28.2"/>
		</g>
		<g>
			<polygon class="st3" points="509.5,110.9 492,88.9 492.1,88.7 509.6,110.8 			"/>
		</g>
		<g>
			
				<rect x="504.6" y="83" transform="matrix(0.8482 -0.5297 0.5297 0.8482 25.201 282.0769)" class="st3" width="0.2" height="28.1"/>
		</g>
		<g>
			<polygon class="st3" points="512.8,108.5 497.8,84.7 498,84.6 512.9,108.4 			"/>
		</g>
		<g>
			<polygon class="st3" points="515.6,106.9 503.5,81.6 503.6,81.5 515.7,106.9 			"/>
		</g>
		<g>
			<polygon class="st3" points="516.4,106.6 504.1,81.3 504.3,81.2 516.5,106.6 			"/>
		</g>
		<g>
			<polygon class="st3" points="520,105.1 510.9,78.4 511.1,78.4 520.2,105.1 			"/>
		</g>
		<g>
			<polygon class="st3" points="519.2,105.3 510,78.6 510.1,78.6 519.4,105.3 			"/>
		</g>
		<g>
			<polygon class="st3" points="523.1,104.1 516.9,76.6 517.1,76.6 523.3,104.1 			"/>
		</g>
		<g>
			
				<rect x="520.8" y="76.1" transform="matrix(0.9751 -0.2218 0.2218 0.9751 -7.0179 117.7483)" class="st3" width="0.2" height="28.1"/>
		</g>
		<g>
			<polygon class="st3" points="527.1,103.2 524,75.4 524.2,75.3 527.3,103.2 			"/>
		</g>
		<g>
			<rect x="526.3" y="75" transform="matrix(0.994 -0.1097 0.1097 0.994 -6.6044 58.3089)" class="st3" width="0.2" height="28.2"/>
		</g>
		<g>
			
				<rect x="531.1" y="74.9" transform="matrix(1 -3.149591e-03 3.149591e-03 1 -0.2774 1.6736)" class="st3" width="0.2" height="28.1"/>
		</g>
		<g>
			<rect x="531.9" y="74.8" class="st3" width="0.2" height="28.2"/>
		</g>
		<g>
			<polygon class="st3" points="551.4,108.6 551.3,108.5 566.8,85.1 567,85.2 			"/>
		</g>
		<g>
			<polygon class="st3" points="552.1,109 551.9,108.9 567.6,85.6 567.8,85.7 			"/>
		</g>
		<g>
			<polygon class="st3" points="554.7,111 554.6,110.9 572.7,89.4 572.8,89.5 			"/>
		</g>
		<g>
			<polygon class="st3" points="555.3,111.5 555.2,111.4 573.3,89.9 573.5,90 			"/>
		</g>
		<g>
			<polygon class="st3" points="557.8,113.7 557.6,113.6 578,94.3 578.1,94.4 			"/>
		</g>
		<g>
			
				<rect x="554.4" y="104.5" transform="matrix(0.7245 -0.6893 0.6893 0.7245 84.5387 420.6226)" class="st3" width="28.1" height="0.2"/>
		</g>
		<g>
			<polygon class="st3" points="560.4,116.7 560.3,116.6 582.7,99.6 582.8,99.8 			"/>
		</g>
		<g>
			<polygon class="st3" points="560.9,117.3 560.8,117.2 583.2,100.3 583.3,100.5 			"/>
		</g>
		<g>
			<polygon class="st3" points="562.8,120.1 562.7,119.9 586.8,105.5 586.9,105.7 			"/>
		</g>
		<g>
			
				<rect x="561.2" y="113.4" transform="matrix(0.8609 -0.5087 0.5087 0.8609 22.2518 308.3874)" class="st3" width="28" height="0.2"/>
		</g>
		<g>
			<polygon class="st3" points="564.6,123.6 564.6,123.4 590.2,111.9 590.3,112.1 			"/>
		</g>
		<g>
			<polygon class="st3" points="565,124.4 564.9,124.2 590.6,112.7 590.6,112.8 			"/>
		</g>
		<g>
			
				<rect x="565.4" y="122.9" transform="matrix(0.9525 -0.3045 0.3045 0.9525 -9.9246 182.2931)" class="st3" width="28.1" height="0.2"/>
		</g>
		<g>
			<polygon class="st3" points="566.4,128.1 566.4,127.9 593.1,119.4 593.2,119.6 			"/>
		</g>
		<g>
			<polygon class="st3" points="567.2,131.2 567.2,131.1 594.8,125.5 594.8,125.7 			"/>
		</g>
		<g>
			<polygon class="st3" points="567.4,132 567.4,131.9 595,126.3 595,126.5 			"/>
		</g>
		<g>
			<polygon class="st3" points="567.9,135.3 567.9,135.1 595.8,132.6 595.8,132.8 			"/>
		</g>
		<g>
			<polygon class="st3" points="568,136.1 568,135.9 596,133.5 596,133.6 			"/>
		</g>
		<g>
			<polygon class="st3" points="596.3,139.9 568.1,139.3 568.1,139.1 596.3,139.7 			"/>
		</g>
		<g>
			<polygon class="st3" points="596.3,140.7 568.1,140.1 568.1,139.9 596.3,140.5 			"/>
		</g>
		<g>
			
				<rect x="522.5" y="88.9" transform="matrix(0.1204 -0.9927 0.9927 0.1204 383.5798 610.9882)" class="st3" width="28.1" height="0.2"/>
			
				<rect x="523.2" y="89" transform="matrix(0.1251 -0.9921 0.9921 0.1251 381.7125 610.9902)" class="st3" width="28.2" height="0.2"/>
			<polygon class="st3" points="544.9,76.3 538.9,103.6 539,103.6 545.1,76.3 			"/>
			<polygon class="st3" points="545.6,76.4 539.5,103.8 539.7,103.8 545.8,76.4 			"/>
			
				<rect x="533.6" y="91.3" transform="matrix(0.3206 -0.9472 0.9472 0.3206 285.4658 580.8273)" class="st3" width="28.1" height="0.2"/>
			
				<rect x="534.3" y="91.6" transform="matrix(0.3209 -0.9471 0.9471 0.3209 285.5581 581.5768)" class="st3" width="28.1" height="0.2"/>
			
				<rect x="539.4" y="93.7" transform="matrix(0.4407 -0.8977 0.8977 0.4407 225.3557 549.1575)" class="st3" width="27.9" height="0.2"/>
			<polygon class="st3" points="560.1,81.5 547.7,106.6 547.9,106.6 560.3,81.6 			"/>
		</g>
	</g>
	<path class="st6" d="M559.4,113.2c-11.2-12.2-27.3-11.9-27.3-11.9s-16.1-0.3-27.3,11.9c-9.4,10.2-10.3,22.1-10.3,25.7h1.1
		c-0.1-3.4,0.4-15,10-25.1c12.3-12.2,26.6-11.3,26.6-11.3s14.3-0.9,26.6,11.3c11.5,12.1,10,26.1,10,26.1l1.1,0.1
		C569.7,140.1,570.7,125.4,559.4,113.2z"/>
	<path class="st6" d="M577,94.6c-18.5-17.6-38.4-18.9-43.6-18.9c-0.6,0-1.9,0-2.6,0c-5.5,0-25.2,1.5-43.4,18.9
		c-16.9,16.3-18.2,38.2-18.2,44.3h1.2c0-5.9,1.2-26.5,17.9-43.4c20-19.6,44-18.5,44-18.5h0c0,0,24-1.1,44,18.5
		c19.7,20,17.8,45.1,17.8,45.1h1.2C595.2,140.5,596.9,113.7,577,94.6z"/>
	<polyline class="st2" points="611.9,279 611.7,169.6 250.9,170.3 	"/>
	<line class="st2" x1="638.5" y1="146.2" x2="638.5" y2="283.8"/>
	<line class="st2" x1="356.5" y1="170.5" x2="356.5" y2="278.4"/>
	<g>
		<path class="st7" d="M661.6,311.7l-1.8-0.7l6.8-17.3l1.9,0.7L661.6,311.7z M659.3,310.6"/>
	</g>
	<path class="st0" d="M650.3,287.6l17.1,6.8l-6.6,16.6C660.8,311,644,304.4,650.3,287.6z"/>
	<g>
		<path class="st3" d="M564.3,427.7l77.8,33.2l0.2,0.1L803.2,59.9l-0.3-0.1L642.1,460.6l-77.7-33.2
			C564.4,427.5,564.4,427.6,564.3,427.7z"/>
		<path class="st3" d="M806.7,59.7L643.4,464.6l-80.1-34.6c0,0.1-0.1,0.2-0.1,0.3l80.3,34.6l0.2,0.1L807,59.9L806.7,59.7z"/>
		<polygon class="st3" points="517.5,410.3 444.2,378.7 445.4,376.9 518.5,408.2 518.7,407.8 445.4,376.5 445.3,376.5 443.7,378.9 
			517.3,410.7 		"/>
	</g>
	<g>
		<path class="st8" d="M613.5,535.8l-81.1-34.8l31.2-73.6l81.1,34.8L613.5,535.8z M535.1,500l77.2,33.1l29.5-69.7l-77.2-33.1
			L535.1,500z"/>
	</g>
	<rect x="393.4" y="139.3" class="st5" width="8.7" height="8.7"/>
	<g>
		<polygon class="st3" points="314.2,86.1 314.2,79.8 356.9,79.8 356.9,79 103.7,79.3 103.7,80 144.7,80 144.7,86.1 145.6,86.1 
			145.6,80 168.8,79.9 168.8,86.2 169.6,86.2 169.6,79.9 192.9,79.9 192.9,86.2 193.9,86.2 193.9,79.9 215.9,79.9 215.9,85.9 
			216.9,85.9 216.9,79.9 241.1,79.9 241.1,86.2 242,86.2 242,79.9 265.2,79.8 265.2,146.8 265.2,147.6 265.2,147.9 352.2,147.9 
			352.2,146.8 266.3,146.8 266.3,79.8 289.3,79.8 289.3,86.1 290.1,86.1 290.1,79.8 313.4,79.8 313.4,86.1 		"/>
		<rect x="122.7" y="80" class="st3" width="1" height="6.1"/>
	</g>
</g>
</svg>
